<?xml version="1.0" encoding="UTF-8" standalone="no"?>

<svg
   version="1.1"
   id="svg48"
   width="1306.1688"
   height="1111.6289"
   viewBox="0 0 1306.1688 1111.6289"
   xmlns="http://www.w3.org/2000/svg"
   xmlns:svg="http://www.w3.org/2000/svg">
  <defs
     id="defs52" />
  <g
     id="g54"
     transform="translate(-725.83118,-255.76335)">
    <path
       style="fill:#75492b;stroke:none"
       d="m 1014,1107 c -31.221,-4.67 -64.464,-0.87 -95.999,-2.04 -32.444,-1.19 -70.38,-6.09 -100.001,10.48 -86.241,48.25 -59.16,179.87 13,226.86 40.338,26.27 83.9,23.7 130,23.7 h 188 257 c 43.32,0 93.24,7.01 134,-10.43 73.73,-31.53 95.76,-109.72 93.97,-183.57 -1.04,-43.37 -11.35,-84.03 -20.97,-126 l -27,14 c 2.27,15.42 7.79,30.57 10.58,46 11.24,62.32 16.58,140.33 -27.02,192 -42.66,50.56 -109.41,40 -168.56,40 H 994 c 80.79,-70.58 66.31,-188.88 40.42,-282 C 997.856,924.442 919.731,807.702 854.694,689 815.555,617.564 779.335,541.517 763.803,461 754.59,413.238 750.734,358.826 782.425,318 810.405,281.954 864.314,278.253 900,304.759 c 15.38,11.424 25.203,26.622 32,44.241 -27.016,0 -56.182,0.879 -83,-2.286 -8.957,-1.056 -17.984,-0.714 -27,-0.714 -2.961,0 -7.895,-0.89 -10.411,1.028 -6.586,5.018 -5.587,28.397 -5.589,35.972 -0.013,40.301 22.503,78.763 63,89.848 18.888,5.17 39.558,3.948 59,4.156 21.309,0.228 42.681,1.488 64,2.011 74.62,1.828 149.43,4.68 224,7.946 28.62,1.253 57.37,2.323 86,3.013 8.8,0.213 27.39,-3.368 34.81,2.004 4.86,3.521 5.91,16.411 7.32,22.022 4.82,19.25 10.95,38.08 16.89,57 20.22,64.37 48.36,127.31 79.68,187 7.46,14.204 13.85,29.025 21.72,43 2.96,5.242 5.06,12.13 10.58,15 3.79,-7.971 16.79,-18.248 17.18,-27 0.35,-7.823 -8.84,-19.237 -12.4,-26 -11.1,-21.092 -21.82,-42.448 -32,-64 -30.99,-65.615 -61.88,-135.343 -75.78,-207 28.15,0 56.93,0.167 85,2.089 20.25,1.388 43.31,3.98 63,-2.115 65.03,-20.129 81.84,-110.632 45.28,-162.974 -6.05,-8.666 -12.94,-16.443 -21.28,-22.985 -50.73,-39.812 -111.56,-26.528 -171,-32.185 -40.02,-3.809 -80.81,-2.238 -121,-3.869 -72.66,-2.947 -145.32,-4.329 -218,-6.997 -39.972,-1.468 -80.036,-2.253 -120,-4.003 -25.898,-1.134 -53.206,-5.581 -79,-1.522 -57.588,9.061 -92.848,50.67 -103.389,106.561 -13.753,72.923 12.575,147.688 37.964,215 45.766,121.337 122.9,228.456 180.672,344 28.518,57.037 57.633,120.05 65.753,184 M 946,448 c 23.773,-39.347 30.461,-84.998 7.691,-127 -7.062,-13.027 -19.636,-21.681 -26.691,-34 38.685,0 77.37,2.313 116,3.961 71.98,3.069 144.05,3.849 216,7 52.31,2.291 104.7,2.709 157,5 19.31,0.846 38.79,-0.128 58,2.325 61.33,7.828 101.19,77.451 67.54,132.714 -17.11,28.085 -43.69,26.721 -72.54,26.015 -27.63,-0.677 -55.22,-1.012 -82.83,-2.142 -97.01,-3.968 -194.08,-5.929 -291.13,-8.924 C 1045.45,451.418 995.61,448.005 946,448 m -9,-70 c 0,19.638 -3.7,40.634 -18.004,55.254 C 897.016,455.719 860.264,443.897 845.876,419 838.047,405.453 837,390.24 837,375 l 100,3 m 671,401 h -1 c 0.14,-16.94 2.26,-34.539 6.38,-51 2.42,-9.693 6.94,-19.216 8.62,-29 -54.73,28.825 -94.79,88.334 -110.85,147 -4.97,18.182 -5.81,36.477 -8.15,55 h -1 l -5.29,-43 5.29,-44 c -17.17,13.173 -30.13,39.225 -40.31,58 -29.49,54.394 -43.69,113.215 -43.69,175 14.87,-11.38 26.76,-30.6 38.75,-45 23.76,-28.521 48.05,-56.835 73.34,-84 65.04,-69.85 134.6,-134.893 210.91,-192.374 31.93,-24.052 64.61,-49.789 100,-68.626 -19.25,16.417 -41.02,30.425 -61,46.014 -31.71,24.743 -62.18,51.178 -92,78.156 -91.83,83.081 -173.32,176.852 -251.26,272.83 -29.59,36.44 -56.4,74.8 -83.6,113 -10.26,14.41 -28.98,35.65 -29.14,54 11.19,-2.82 20.94,-11.33 30,-18.13 11.04,-8.28 23.71,-16.79 32.1,-27.87 17.76,-23.45 31.53,-50.19 49.02,-74 5.12,-6.97 9.63,-15.95 16.18,-21.68 4.23,-3.7 12.35,-3.2 17.7,-4.07 13.06,-2.14 26.33,-4.4 39,-8.27 47.7,-14.6 94.42,-36.03 134,-66.77 11.62,-9.029 31.29,-20.115 37,-34.21 -22.1,6.225 -45.06,8.965 -68,7.961 -12.06,-0.528 -23.97,-3.445 -36,-3.961 v -2 c 21.81,-0.181 44.33,-8.052 65,-14.28 95.25,-28.695 166.8,-100.76 218,-183.72 l -49,10.83 -46,-1.83 v -1 c 40.2,-3.172 84.55,-19.579 115,-46.286 27.97,-24.531 44.87,-56.764 67.42,-85.714 24.94,-31.999 52.93,-56.802 86.58,-79 -9.38,-3.947 -21.21,-1.048 -31,-1.001 -28.02,0.135 -56.26,3.733 -84,7.73 -87.77,12.648 -187.54,39.838 -252,104.271 -26.21,26.203 -51.9,63.199 -57,101 M 924.001,575.558 c -14.253,3.758 -12.004,22.927 0.999,26.514 10.57,2.915 23.116,0.565 34,0.964 24.348,0.894 48.62,1.707 73,1.968 56.98,0.609 113.97,4.996 171,4.996 21.31,0 42.7,1.999 64,2 7.33,0 17.84,1.882 23.79,-3.419 9.15,-8.163 3.01,-21.868 -7.79,-23.961 -24.31,-4.713 -51.28,-0.098 -76,-2.45 -21.45,-2.042 -43.46,-0.412 -65,-1.206 -45.58,-1.682 -91.35,-3.964 -137,-3.964 -19.365,0 -38.62,-2 -58,-2 -7.247,0 -15.956,-1.299 -22.999,0.558 M 1850,651 l -1,1 1,-1 m -2,1 -7,5 v -1 l 7,-4 m -866.999,37.573 c -13.232,3.815 -10.927,22.883 0.999,26.623 8.795,2.758 19.86,0.443 29,0.843 23.99,1.051 47.94,1.846 72,1.962 58.63,0.283 117.3,4.999 176,4.999 20.99,0 42.02,2 63,2 7.36,0 18.54,2.088 24.67,-2.854 8.94,-7.206 4.6,-21.119 -5.67,-24.203 -6.92,-2.08 -14.86,-0.716 -22,-0.979 -15.37,-0.567 -30.81,-1 -46.17,-1.869 -68.64,-3.882 -138.07,-4.303 -206.83,-5.099 -20.33,-0.235 -40.65,-1.996 -61,-1.996 -7.448,0 -16.803,-1.503 -23.999,0.573 M 1039,803.519 c -12.84,2.806 -16.21,21.096 -3,26.333 6.47,2.562 15.17,1.137 22,1.148 13.42,0.022 27.58,0.17 41,1.089 56.56,3.874 113.56,1.614 170.17,4.816 12.25,0.693 24.62,-0.77 36.83,0.555 22.24,2.413 45.62,1.54 68,1.54 7.02,0 19.01,2.279 24.79,-2.514 8.45,-7.022 4.73,-21.674 -5.79,-24.092 -21.66,-4.979 -47.75,-1.233 -70,-2.318 -58.92,-2.876 -118.1,-0.864 -177,-4.155 -25.23,-1.409 -50.74,-1.919 -76,-1.921 -10.09,-10e-4 -21.01,-2.665 -31,-0.481 m 53,113.134 c -12.17,3.821 -13.59,22.364 -1,26.644 16.59,5.64 38.66,0.605 56,1.792 54.89,3.76 110.95,3.911 166,3.911 16.66,0 33.29,1 50,1 6.51,0 15.38,1.581 20.89,-2.653 8.08,-6.208 5.71,-20.305 -3.9,-23.644 -15.61,-5.421 -37.51,-1.127 -53.99,-2.475 -52.35,-4.281 -105.52,-0.97 -158,-3.267 -15.96,-0.699 -32.02,-0.3 -48,-1 -8.74,-0.383 -19.42,-3.002 -28,-0.308 m 40,113.987 c -11.68,3.42 -13.91,20.76 -2,25.63 12.76,5.22 30.49,1.05 44,1.81 37.1,2.09 74.84,2.92 112,2.92 h 34 c 4.84,0 10.7,0.91 14.96,-1.89 11.07,-7.29 5.04,-23.41 -6.96,-24.92 -18.11,-2.3 -36.77,-0.76 -55,-1.2 -27.66,-0.68 -55.29,-1.99 -83,-1.99 -17.83,0 -40.71,-5.42 -58,-0.36 M 1020,1135 c 3.92,30.99 4.92,60.95 1,92 h -85 c 7.018,-24.36 14.795,-44.63 4.547,-70 -3.494,-8.65 -9.444,-15.75 -13.547,-24 l 93,2 m -8,120 c -3.06,13.22 -8.95,25.9 -16.721,37 -7.429,10.61 -16.438,19.56 -27.279,26.66 -72.128,47.19 -166.261,-9.17 -171.911,-91.66 -1.217,-17.78 0.33,-38.02 8.801,-54 16.682,-31.48 58.555,-49.04 90.11,-27.54 19.176,13.07 31.703,58.01 7.985,73.57 -10.641,6.98 -12.924,-3.36 -21.985,-6.04 -7.745,-2.3 -13.725,7.39 -13.642,14.01 0.187,14.81 16.683,24.83 29.642,26.7 17.965,2.59 37.891,0.69 55.975,0.44 19.692,-0.27 39.329,0.86 59.025,0.86 m 135,-111.35 c -12.19,3.85 -11.79,22.46 0,26.5 7.88,2.69 18.75,0.85 27,0.85 17.19,0 34.79,0.29 52,1.04 9.13,0.4 22.45,3.84 31,-0.5 11.5,-5.83 8.23,-24.39 -4,-27.06 -15.02,-3.28 -32.65,0.05 -48,-0.52 -17.17,-0.63 -41.44,-5.53 -58,-0.31 z"
       id="path216" />
  </g>
</svg>
